<?xml version="1.0" encoding="UTF-8"?>
<svg id="Layer_1" data-name="Layer 1" xmlns="http://www.w3.org/2000/svg" viewBox="0 0 400 108">
  <defs>
    <style>
      .cls-1 {
        fill: #1e1e1e;
      }
    </style>
  </defs>
  <rect class="cls-1" x="366.6" y="30.37" width="3.99" height="7.92"/>
  <path class="cls-1" d="m274.27,0v108h125.73V0h-125.73Zm5.95,22.27h6.44v-3.98h39.96v3.98h8v3.96h7.98v11.9h-3.99v3.96h-3.99v3.96h-8v3.98h-11.99v3.96h-34.41v-31.72Zm58.39,51.28h-3.99v3.98h-4.01v3.96h-3.99v3.96h-3.99v3.98h-8v3.96h-11.99v3.96h-19.97v-3.96h-2.45v-7.92h10.45v-3.98h3.99v-3.96h7.98v-3.98h27.97v-3.96h8v3.96Zm27.97,4.14h-7.98v-3.96h-4.01v-3.98h-3.99v-3.96h3.99v-3.96h8v3.96h3.99v11.9Zm19.99-43.36h-4.01v7.94h-3.99v3.83h-3.99v3.98h-4.01v3.91h-11.97v3.91h-8v3.93h-8v3.96h-15.98v3.89h-35.96v-3.89h-10.45v-7.92h42.41v-3.93h11.99v-3.74h3.99v-3.96h3.99v-3.96h4.01v-3.98h3.99v-3.96h3.99v-3.96h4.01v-3.98h7.98v-3.96h11.99v3.96h3.99v3.98h4.01v3.96Z"/>
  <path class="cls-1" d="m71.69,0h-25.17v48.02h25.17c5.87,0,10.78-4.86,10.78-10.7v-4.31c0-4.26-2.57-7.89-6.15-8.99,3.59-1.1,6.15-4.74,6.15-8.99v-4.33c0-5.83-4.91-10.7-10.78-10.7Zm.4,34.98c0,1.58-1.17,2.75-2.77,2.75h-12.43v-8.57h12.43c1.59,0,2.77,1.16,2.77,2.75v3.08Zm0-18.86c0,1.58-1.17,2.75-2.77,2.75h-12.43v-8.59h12.43c1.59,0,2.77,1.17,2.77,2.75v3.1Z"/>
  <polygon class="cls-1" points="122.91 37.73 100.79 37.73 100.79 0 90.42 0 90.42 48.02 122.91 48.02 122.91 37.73"/>
  <path class="cls-1" d="m141.09,0l-16.03,48.02h10.92l2.63-7.89h15.9l2.68,7.89h10.93L152,0h-10.92Zm.97,29.84l4.49-14.55,4.49,14.55h-8.99Z"/>
  <path class="cls-1" d="m183.87,48.02h14.39c5.87,0,10.78-4.86,10.78-10.7v-6.44h-10.36v4.11c0,1.58-1.19,2.75-2.77,2.75h-9.68c-1.59,0-2.77-1.16-2.77-2.75V13.03c0-1.58,1.17-2.75,2.77-2.75h9.68c1.58,0,2.77,1.17,2.77,2.75v4.13h10.36v-6.46c0-5.83-4.91-10.7-10.78-10.7h-14.39c-6.07,0-10.78,4.88-10.78,10.7v26.61c0,5.84,4.71,10.7,10.78,10.7Z"/>
  <polygon class="cls-1" points="241.74 0 231.43 18.87 226.6 18.87 226.6 0 216.23 0 216.23 48.02 226.6 48.02 226.6 29.16 231.43 29.16 241.74 48.02 253.55 48.02 240.42 24.02 253.55 0 241.74 0"/>
  <path class="cls-1" d="m25.17,59.98H0v48.02h25.17c5.87,0,10.78-4.86,10.78-10.7v-4.33c0-4.24-2.57-7.89-6.15-8.97,3.59-1.1,6.15-4.74,6.15-8.99v-4.33c0-5.83-4.91-10.7-10.78-10.7Zm.4,34.98c0,1.58-1.17,2.75-2.77,2.75h-12.43v-8.57h12.43c1.59,0,2.77,1.17,2.77,2.75v3.08Zm0-18.86c0,1.56-1.17,2.73-2.77,2.73h-12.43v-8.57h12.43c1.59,0,2.77,1.17,2.77,2.75v3.1Z"/>
  <path class="cls-1" d="m69.81,94.97c0,1.58-1.17,2.75-2.77,2.75h-10.36c-1.59,0-2.77-1.17-2.77-2.75v-34.98h-10.36v37.31c0,5.84,4.7,10.7,10.78,10.7h15.08c5.87,0,10.78-4.86,10.78-10.7v-37.31h-10.38v34.98Z"/>
  <path class="cls-1" d="m124.43,81.19v-10.5c0-5.83-4.91-10.7-10.78-10.7h-25.17v48.02h10.38v-16.11h6.78l7.87,16.11h11.49l-8.1-16.59c4.43-1.38,7.55-5.36,7.55-10.22Zm-10.38-2.35c0,1.58-1.17,2.75-2.77,2.75h-12.43v-11.32h12.43c1.59,0,2.77,1.17,2.77,2.75v5.83Z"/>
  <polygon class="cls-1" points="131.68 108 162.1 108 162.1 97.71 142.06 97.71 142.06 89.14 160.02 89.14 160.02 78.84 142.06 78.84 142.06 70.27 162.1 70.27 162.1 59.98 131.68 59.98 131.68 108"/>
  <path class="cls-1" d="m184.57,59.98l-16.05,48.02h10.93l2.62-7.89h15.9l2.7,7.89h10.92l-16.1-48.02h-10.92Zm.96,29.84l4.49-14.55,4.49,14.55h-8.99Z"/>
  <path class="cls-1" d="m243.18,94.97c0,1.58-1.17,2.75-2.77,2.75h-10.36c-1.59,0-2.77-1.17-2.77-2.75v-34.98h-10.36v37.31c0,5.84,4.7,10.7,10.78,10.7h15.06c5.89,0,10.78-4.86,10.78-10.7v-37.31h-10.36v34.98Z"/>
</svg>