<svg id="Layer_1" data-name="Layer 1" xmlns="http://www.w3.org/2000/svg" viewBox="0 0 1302.06 506.96"><defs><style>.cls-1{fill:#e6e6e6;}</style></defs><path d="M0,0C0,236.33,291.47,507,651,507s651-270.63,651-507Z"/><path class="cls-1" d="M870.22,328.55C832.54,360.5,791.88,388,746.79,408.5c-30.61,13.89-62.29,23.82-111,23.69-14.77,0-42.5-7.71-69.33-18.91-50-20.85-94.59-50.46-135.65-85.42-21.25-18.11-22-48.12-1.08-66.12,44.81-38.64,93.86-70.63,149.5-91.94,53.41-20.47,105.6-16.87,157.51,5.37,50.12,21.48,94.79,51.52,136.17,86.55,20.76,17.58,19.31,48.19-2.66,66.83Z"/></svg>