<?xml version="1.0" encoding="UTF-8"?>
<svg id="Layer_1" data-name="Layer 1" xmlns="http://www.w3.org/2000/svg" viewBox="0 0 400 128">
  <defs>
    <style>
      .cls-1 {
        fill: #fe941e;
      }

      .cls-2 {
        fill: #88c82b;
      }

      .cls-3 {
        fill: #ffc72a;
      }

      .cls-4 {
        fill: #00a1be;
      }

      .cls-5 {
        fill: #ff6610;
      }

      .cls-6 {
        fill: #ff2501;
      }

      .cls-7 {
        fill: #621fa2;
      }

      .cls-8 {
        fill: #0a5eb1;
      }

      .cls-9 {
        fill: #081ca1;
      }

      .cls-10 {
        fill: #fbfb3a;
      }

      .cls-11 {
        fill: #03ae24;
      }

      .cls-12 {
        fill: #c7237a;
      }

      .cls-13 {
        fill: #1e1e1e;
      }
    </style>
  </defs>
  <g>
    <path class="cls-13" d="m127.55,25.81c1.44-1.09,3.29-1.63,5.55-1.63,1.97,0,3.73.62,5.3,1.85,1.56,1.23,2.66,2.95,3.29,5.16l10.71-2.83c-.95-4.38-3.12-7.84-6.52-10.37-3.4-2.53-7.61-3.8-12.62-3.8-4.33,0-8.08.97-11.26,2.91-3.18,1.94-5.64,4.61-7.38,7.99-1.75,3.39-2.62,7.23-2.62,11.54s.84,8.07,2.52,11.46c1.68,3.39,4.09,6.06,7.24,8.03,3.15,1.97,6.93,2.95,11.34,2.95,4.93,0,9.08-1.22,12.44-3.66,3.36-2.44,5.64-5.92,6.85-10.43l-10.95-2.28c-.63,2.05-1.58,3.62-2.83,4.72-1.26,1.1-3.1,1.65-5.51,1.65-3.23,0-5.66-1.15-7.3-3.44-1.64-2.3-2.46-5.3-2.46-9,0-2.36.34-4.48,1.02-6.36.68-1.88,1.75-3.36,3.19-4.45Z"/>
    <path class="cls-13" d="m166.02,56.18c3.23,1.92,6.98,2.87,11.26,2.87s8-.95,11.24-2.85c3.24-1.9,5.77-4.54,7.6-7.91,1.82-3.37,2.74-7.26,2.74-11.67s-.91-8.26-2.72-11.63c-1.81-3.37-4.34-6.02-7.58-7.93-3.24-1.92-7-2.87-11.28-2.87s-7.91.94-11.14,2.83c-3.23,1.89-5.76,4.52-7.6,7.89-1.84,3.37-2.76,7.28-2.76,11.71s.9,8.26,2.7,11.63c1.8,3.37,4.31,6.02,7.54,7.93Zm2.19-26.06c.72-1.86,1.83-3.32,3.33-4.37,1.5-1.05,3.41-1.57,5.75-1.57,3.39,0,5.94,1.13,7.66,3.39,1.72,2.26,2.58,5.27,2.58,9.06s-.85,6.63-2.54,8.96c-1.69,2.32-4.26,3.48-7.7,3.48s-5.86-1.12-7.58-3.37c-1.72-2.25-2.58-5.27-2.58-9.07,0-2.47.36-4.63,1.08-6.5Z"/>
    <path class="cls-13" d="m229.03,56.18c3.23,1.92,6.98,2.87,11.26,2.87s8-.95,11.24-2.85c3.24-1.9,5.77-4.54,7.6-7.91,1.82-3.37,2.74-7.26,2.74-11.67s-.91-8.26-2.72-11.63c-1.81-3.37-4.34-6.02-7.58-7.93-3.24-1.92-7-2.87-11.28-2.87s-7.91.94-11.14,2.83c-3.23,1.89-5.76,4.52-7.6,7.89-1.84,3.37-2.76,7.28-2.76,11.71s.9,8.26,2.7,11.63c1.8,3.37,4.31,6.02,7.54,7.93Zm2.18-26.06c.72-1.86,1.83-3.32,3.33-4.37,1.5-1.05,3.41-1.57,5.75-1.57,3.39,0,5.94,1.13,7.66,3.39,1.72,2.26,2.58,5.27,2.58,9.06s-.85,6.63-2.54,8.96c-1.69,2.32-4.26,3.48-7.7,3.48s-5.86-1.12-7.58-3.37c-1.72-2.25-2.58-5.27-2.58-9.07,0-2.47.36-4.63,1.08-6.5Z"/>
    <path class="cls-13" d="m287.43,15.26c-1.29.09-2.53.31-3.74.67-1.21.35-2.32.85-3.35,1.48-1.34.79-2.47,1.79-3.39,2.99-.44.58-.83,1.18-1.18,1.82v-6.86h-9.45v42.52h10.79v-21.73c0-1.63.22-3.09.67-4.39.45-1.3,1.1-2.43,1.97-3.39.87-.96,1.93-1.73,3.19-2.3,1.26-.6,2.67-.96,4.23-1.08,1.56-.12,2.93,0,4.11.37v-10c-1.29-.16-2.57-.19-3.86-.1Z"/>
    <path class="cls-13" d="m189.56,67.79c-.25-.2-.48-.43-.75-.62-2.76-1.97-6.16-2.95-10.2-2.95s-7.61.97-10.63,2.91c-3.02,1.94-5.36,4.6-7.03,7.97-1.67,3.37-2.5,7.22-2.5,11.56s.82,8.07,2.46,11.46c1.64,3.39,3.93,6.06,6.87,8.03,2.94,1.97,6.36,2.95,10.28,2.95s7.4-.9,10.16-2.68v4.25c.05,1.57-.35,2.89-1.2,3.96-.85,1.06-1.99,1.86-3.41,2.4-1.42.54-2.93.81-4.53.81-1.5,0-2.88-.33-4.15-.98-1.27-.66-2.25-1.61-2.93-2.87l-9.92,4.8c1.08,1.84,2.47,3.44,4.19,4.82s3.67,2.45,5.85,3.23c2.18.77,4.48,1.16,6.89,1.16,3.12,0,6.02-.41,8.7-1.24,2.68-.83,4.94-2.08,6.79-3.76,1.85-1.68,3.12-3.82,3.8-6.42.24-.92.4-1.84.49-2.78.09-.93.14-1.92.14-2.97v-45.43h-9.37v2.39Zm-4.04,30.17c-1.43,1.08-3.34,1.61-5.73,1.61s-4.2-.58-5.67-1.73c-1.47-1.15-2.56-2.71-3.27-4.66-.71-1.96-1.06-4.13-1.06-6.52s.37-4.52,1.1-6.48c.73-1.95,1.87-3.52,3.41-4.69,1.54-1.17,3.5-1.75,5.89-1.75,2.23,0,4.04.54,5.41,1.61,1.38,1.08,2.38,2.59,3.01,4.53.63,1.94.94,4.2.94,6.77s-.32,4.83-.94,6.77c-.63,1.94-1.66,3.45-3.09,4.53Z"/>
    <path class="cls-13" d="m232.83,86.98c0,2.62-.3,4.74-.89,6.36s-1.35,2.83-2.26,3.66c-.92.83-1.9,1.38-2.95,1.67-1.05.29-2.03.43-2.95.43-2.28,0-4.05-.51-5.29-1.54-1.25-1.02-2.15-2.3-2.7-3.82-.55-1.52-.88-3.04-.98-4.55-.11-1.51-.16-2.75-.16-3.72V0h-10.87v89.26c0,.71.05,1.84.16,3.39.1,1.55.41,3.26.91,5.14.5,1.88,1.33,3.68,2.5,5.41,1.17,1.73,2.8,3.16,4.9,4.29,2.1,1.13,4.82,1.69,8.15,1.69,4.17,0,7.63-.91,10.37-2.72,1.29-.85,2.42-1.84,3.41-2.95v4.4h9.45v-42.52h-10.79v21.58Z"/>
    <path class="cls-13" d="m281.33,67.37c-3.12-2.1-6.92-3.15-11.38-3.15-4.2,0-7.91.95-11.14,2.85-3.23,1.9-5.76,4.57-7.6,8.01-1.84,3.44-2.76,7.48-2.76,12.13,0,4.25.94,8.03,2.81,11.32,1.88,3.29,4.47,5.88,7.8,7.76,3.32,1.88,7.16,2.81,11.52,2.81,4.09,0,7.87-1.08,11.32-3.23,3.45-2.15,5.98-5.17,7.58-9.05l-10.71-3.07c-.79,1.73-1.93,3.06-3.42,3.98s-3.29,1.38-5.39,1.38c-3.33,0-5.86-1.08-7.58-3.25-1.26-1.58-2.04-3.66-2.38-6.2h29.84c.45-5.14-.08-9.62-1.58-13.43-1.5-3.8-3.81-6.76-6.93-8.86Zm-10.91,6.14c3.12,0,5.37.95,6.75,2.85.91,1.25,1.51,3.04,1.82,5.33h-18.72c.42-1.96,1.11-3.59,2.1-4.86,1.72-2.22,4.4-3.33,8.05-3.33Z"/>
    <path class="cls-13" d="m324.79,85.42c-1.96-1.12-4.55-2.09-7.78-2.93-3.31-.84-5.77-1.52-7.38-2.05-1.61-.52-2.68-1.04-3.19-1.54-.51-.5-.77-1.12-.77-1.85,0-1.23.6-2.18,1.79-2.83,1.19-.66,2.78-.92,4.74-.79,2.02.16,3.62.7,4.8,1.61,1.18.92,1.86,2.16,2.05,3.74l10.95-1.97c-.37-2.57-1.35-4.8-2.93-6.69-1.59-1.89-3.67-3.35-6.24-4.37-2.57-1.02-5.53-1.54-8.86-1.54s-6.42.55-8.96,1.63c-2.53,1.09-4.5,2.64-5.89,4.65-1.39,2.01-2.09,4.38-2.09,7.11,0,2.18.46,4.03,1.38,5.57.92,1.54,2.41,2.85,4.49,3.96,2.07,1.1,4.84,2.1,8.31,2.99,3.07.81,5.33,1.47,6.79,1.97,1.46.5,2.4,1,2.81,1.51.42.51.63,1.19.63,2.03,0,1.34-.53,2.38-1.58,3.13-1.05.75-2.55,1.12-4.49,1.12-2.36,0-4.31-.56-5.85-1.69-1.54-1.13-2.53-2.69-2.97-4.69l-10.95,1.65c.71,4.44,2.71,7.87,6,10.29,3.29,2.43,7.62,3.64,12.97,3.64s9.92-1.25,13.07-3.74c3.15-2.49,4.72-5.92,4.72-10.28,0-2.2-.45-4.09-1.34-5.65-.89-1.56-2.32-2.9-4.27-4.02Z"/>
    <path class="cls-13" d="m365.2,85.42c-1.96-1.12-4.55-2.09-7.78-2.93-3.31-.84-5.77-1.52-7.38-2.05-1.61-.52-2.68-1.04-3.19-1.54s-.77-1.12-.77-1.85c0-1.23.6-2.18,1.79-2.83,1.19-.66,2.78-.92,4.74-.79,2.02.16,3.62.7,4.8,1.61,1.18.92,1.86,2.16,2.05,3.74l10.95-1.97c-.37-2.57-1.35-4.8-2.93-6.69-1.59-1.89-3.67-3.35-6.24-4.37-2.57-1.02-5.53-1.54-8.86-1.54s-6.42.55-8.96,1.63c-2.53,1.09-4.49,2.64-5.89,4.65-1.39,2.01-2.09,4.38-2.09,7.11,0,2.18.46,4.03,1.38,5.57.92,1.54,2.41,2.85,4.49,3.96,2.07,1.1,4.84,2.1,8.31,2.99,3.07.81,5.33,1.47,6.79,1.97,1.46.5,2.4,1,2.81,1.51.42.51.63,1.19.63,2.03,0,1.34-.53,2.38-1.57,3.13-1.05.75-2.55,1.12-4.49,1.12-2.36,0-4.31-.56-5.85-1.69-1.54-1.13-2.53-2.69-2.97-4.69l-10.94,1.65c.71,4.44,2.71,7.87,6,10.29,3.29,2.43,7.62,3.64,12.97,3.64s9.92-1.25,13.07-3.74c3.15-2.49,4.72-5.92,4.72-10.28,0-2.2-.45-4.09-1.34-5.65-.89-1.56-2.32-2.9-4.27-4.02Z"/>
    <path class="cls-13" d="m396.14,65.3c-1.29.09-2.53.31-3.74.67-1.21.35-2.32.85-3.35,1.48-1.34.79-2.47,1.79-3.39,2.99-.44.57-.83,1.18-1.18,1.82v-6.86h-9.45v42.52h10.79v-21.73c0-1.63.22-3.09.67-4.39.45-1.3,1.1-2.43,1.97-3.38.87-.96,1.93-1.73,3.19-2.3,1.26-.6,2.67-.97,4.23-1.08,1.56-.12,2.93,0,4.11.37v-10c-1.29-.16-2.57-.19-3.86-.1Z"/>
  </g>
  <g>
    <g>
      <path class="cls-4" d="m39.13,53.45c1.65,1.66,3.68,2.95,5.93,3.75-.02.03-.02.05-.02.08-.14.42-.27.85-.4,1.27-.06.22-.14.46-.21.69-.13.43-.26.86-.4,1.3-.21.66-.4,1.3-.59,1.92-.54,1.78-1.07,3.48-1.54,5-3.17-1.01-6.13-2.55-8.73-4.6-.69-.54-1.35-1.14-1.97-1.78,2.72-2.61,5.43-5.22,7.93-7.62Z"/>
      <path class="cls-10" d="m85.64,54.57c-2.53,2.26-5.25,4.31-8.12,6.15-2.69,1.73-5.54,3.27-8.49,4.55-2.58-2.83-5.19-5.69-7.67-8.38.91-.22,1.81-.5,2.69-.79,2.31-.75,4.39-2.08,6.47-3.31.98-.58,1.92-1.19,2.85-1.83.03-.03.08-.05.11-.08,3.67,1.1,7.37,2.24,10.88,3.3.43.13.86.26,1.28.38Z"/>
      <path class="cls-3" d="m72.95,41.34h-10.76c-.05-.29-.11-.56-.19-.83v-.02h.05c.51-.13,1.04-.27,1.55-.42,1.26-.32,2.51-.66,3.67-.96.24-.06.48-.13.71-.19.45-.11.9-.22,1.31-.34.21-.05.42-.11.61-.16,1.04-.27,1.94-.5,2.58-.67.26,1.17.42,2.37.48,3.59Z"/>
      <path class="cls-3" d="m98.82,36.12c0,.7-.3,1.39-.61,2.03-2.05,4.28-4.74,8.22-7.93,11.79-.3.35-.61.69-.95,1.02-1.17,1.25-2.42,2.47-3.7,3.6-.42-.13-.85-.26-1.28-.38-3.51-1.06-7.21-2.19-10.88-3.3,5.13-3.57,9.55-8.09,12.91-13.26.27-.42.54-.85.58-1.35.03-.42-.11-.82-.3-1.2-.08-.18-.19-.34-.29-.5-.05-.1-.11-.18-.18-.27.95-.24,1.87-.46,2.82-.7,2.64-.67,5.29-1.33,7.93-2,.42.75.82,1.52,1.19,2.31.02.06.05.11.06.16.32.66.62,1.33.62,2.05Z"/>
      <path class="cls-7" d="m26.01,20.94c-5.38,3.36-10.01,7.82-13.36,13.08-.98-.26-1.94-.51-2.87-.75-.64-.18-1.28-.34-1.89-.5-.86-.22-1.68-.43-2.5-.66-.3-.08-.61-.16-.91-.24-.83-.22-1.63-.43-2.39-.62,4.18-6.95,9.95-12.84,16.67-17.34,2.26,2.21,4.73,4.6,7.24,7.03Z"/>
      <path class="cls-7" d="m39.37,33.89c-1.75,1.63-3.06,3.73-3.75,6.1v.02c-.19-.05-.38-.11-.58-.16-.62-.16-1.27-.34-1.92-.5-.64-.18-1.3-.34-1.95-.51-.66-.18-1.33-.35-2.02-.53-.67-.18-1.35-.35-2.03-.53-.34-.1-.67-.18-1.02-.27l-1.15-.29v-.02c.21-.72.46-1.44.74-2.13,1.31-3.27,3.33-6.25,5.94-8.71,2.69,2.61,5.32,5.17,7.75,7.53Z"/>
      <path class="cls-1" d="m72.47,37.75c-.64.18-1.54.4-2.58.67-.19.05-.4.11-.61.16-.42.11-.86.22-1.31.34-.22.06-.46.13-.71.19-1.15.3-2.4.64-3.67.96-.51.14-1.04.29-1.55.42h-.02s-.02.02-.03.02v-.02c-.61-2.42-1.86-4.6-3.59-6.31,2.32-2.43,4.64-4.87,6.65-6.77.35-.35.72-.7,1.07-1.07,3.14,3.04,5.38,6.98,6.34,11.42Z"/>
      <path class="cls-1" d="m96.95,31.6c-2.64.67-5.29,1.33-7.93,2-.95.24-1.87.46-2.82.7-3.49-5.62-8.44-10.33-14.21-13.77,2.56-2.53,5.14-5.08,7.7-7.62,7.18,4.77,13.18,11.23,17.25,18.69Z"/>
      <path class="cls-8" d="m35.51,47.2c.62,2.42,1.91,4.55,3.62,6.25-2.5,2.4-5.21,5.01-7.93,7.62-2.83-2.8-4.95-6.33-6.15-10.11-.02-.02-.02-.03-.03-.03-.1-.3-.18-.61-.27-.91,1.09-.29,2.18-.58,3.25-.85.69-.18,1.36-.37,2.03-.53,1.89-.5,3.72-.98,5.48-1.44Z"/>
      <path class="cls-5" d="m79.7,12.91c-2.56,2.55-5.14,5.09-7.7,7.62-4.79-2.87-10.14-4.87-15.66-5.8.4-1.68.8-3.36,1.2-5.01.13-.53.26-1.07.38-1.6.16-.64.3-1.28.46-1.91.13-.51.24-1.03.37-1.52,3.52.51,7,1.42,10.41,2.74,3.72,1.42,7.26,3.27,10.54,5.48Z"/>
      <path class="cls-9" d="m9.79,33.27c.93.24,1.89.5,2.87.75-.22.35-.45.71-.66,1.06H0c.64-1.31,1.35-2.58,2.1-3.83.75.19,1.55.4,2.39.62.3.08.61.16.91.24.82.22,1.63.43,2.5.66.61.16,1.25.32,1.89.5Z"/>
      <path class="cls-9" d="m35.62,40.01c-.35,1.2-.54,2.48-.54,3.81,0,1.19.14,2.31.43,3.38-1.76.46-3.59.95-5.48,1.44-.67.16-1.35.35-2.03.53-1.07.27-2.16.56-3.25.85-1.15-4.31-1.02-8.73.19-12.8v-.02c.38.11.77.21,1.15.3.35.1.69.18,1.02.27.69.18,1.36.35,2.03.53.69.18,1.36.35,2.02.53.66.18,1.31.34,1.95.51.66.16,1.3.34,1.92.5.19.05.38.1.58.14v.02Z"/>
      <path class="cls-2" d="m69.03,65.27c-4.29,1.87-8.84,3.17-13.52,3.6-.11.02-.24.02-.35.02-.02-.06-.03-.13-.05-.21-.14-.62-.27-1.25-.42-1.87-.3-1.38-.59-2.74-.9-4.08-.13-.56-.24-1.12-.37-1.66-.21-.95-.42-1.86-.61-2.77,2.87-.08,5.77-.62,8.54-1.39,2.48,2.69,5.09,5.54,7.67,8.38Z"/>
      <path class="cls-12" d="m41,14.98c-5.32,1.06-10.43,3.11-14.99,5.96-2.51-2.43-4.98-4.82-7.24-7.03,5.91-3.96,12.54-6.84,19.48-8.41.21.7.42,1.42.62,2.16.14.5.29.98.43,1.47.1.32.18.66.29.98.27.98.56,1.99.86,2.98.18.62.37,1.25.54,1.89Z"/>
      <path class="cls-12" d="m44.78,27.9c.24.9.5,1.78.75,2.64-2.35.56-4.47,1.75-6.17,3.35-2.43-2.35-5.06-4.92-7.75-7.53,2.1-2,4.6-3.67,7.4-4.87,1.12-.48,2.31-.88,3.54-1.2.27.93.54,1.86.82,2.79.29.99.56,1.95.85,2.92l.05.19c.18.58.34,1.15.51,1.71Z"/>
      <path class="cls-11" d="m55.16,68.89c-4.45.38-9.03-.08-13.26-1.44.46-1.52.99-3.22,1.54-5,.19-.62.38-1.27.59-1.92.14-.43.27-.86.4-1.3.06-.22.14-.46.21-.69.13-.42.26-.85.4-1.27,0-.03,0-.05.02-.08h.02c1.09.42,2.23.7,3.4.88,1.44.21,2.9.27,4.36.21.19.91.4,1.83.61,2.77.13.54.24,1.1.37,1.66.3,1.35.59,2.71.9,4.08.14.62.27,1.25.42,1.87.02.08.03.14.05.21Z"/>
      <path class="cls-6" d="m55.05,20.04c-.18.67-.34,1.35-.5,2.02-.16.66-.32,1.31-.46,1.97-.56,2.29-1.11,4.53-1.62,6.65-1.19-.34-2.42-.51-3.72-.51-1.11,0-2.18.13-3.2.38h-.02c-.26-.86-.51-1.75-.75-2.64-.18-.56-.34-1.14-.51-1.71l-.05-.19c-.29-.96-.56-1.92-.85-2.92-.27-.93-.54-1.86-.82-2.79,3.99-1.04,8.41-1.18,12.49-.26Z"/>
      <path class="cls-6" d="m58.75,4.7c-.13.5-.24,1.01-.37,1.52-.16.62-.3,1.27-.46,1.91-.13.53-.26,1.07-.38,1.6-.4,1.65-.8,3.33-1.2,5.01h-.02c-2.48-.42-5-.62-7.51-.59-2.63.03-5.24.32-7.8.83-.18-.64-.37-1.27-.54-1.89-.3-.99-.59-2-.86-2.98-.11-.32-.19-.66-.29-.98-.14-.5-.29-.98-.43-1.47-.21-.74-.42-1.46-.62-2.16,6.69-1.55,13.66-1.89,20.5-.8Z"/>
    </g>
    <path class="cls-5" d="m66.13,26.33c-.35.37-.72.72-1.07,1.07-2,1.91-4.32,4.34-6.65,6.77-.78-.8-1.68-1.51-2.66-2.1-1.01-.61-2.11-1.07-3.28-1.41.51-2.11,1.06-4.36,1.62-6.65.14-.66.3-1.31.46-1.97.16-.67.32-1.35.5-2.02,3.36.74,6.5,2.19,8.99,4.47.74.56,1.44,1.17,2.1,1.83Z"/>
  </g>
</svg>