<?xml version="1.0" encoding="utf-8"?>
<!-- Generator: Adobe Illustrator 26.1.0, SVG Export Plug-In . SVG Version: 6.00 Build 0)  -->
<svg version="1.1" id="Layer_1" xmlns="http://www.w3.org/2000/svg" xmlns:xlink="http://www.w3.org/1999/xlink" x="0px" y="0px"
	 viewBox="0 0 429.2 279" style="enable-background:new 0 0 429.2 279;" xml:space="preserve">
<style type="text/css">
	.st0{fill:#00A1BE;}
	.st1{fill:#FBFB3A;}
	.st2{fill:#FFC72A;}
	.st3{fill:#621FA2;}
	.st4{fill:#FE941E;}
	.st5{fill:#0A5EB1;}
	.st6{fill:#FF6610;}
	.st7{fill:#081CA1;}
	.st8{fill:#88C82B;}
	.st9{fill:#C7237A;}
	.st10{fill:#03AE24;}
	.st11{fill:#FF2501;}
</style>
<g>
	<g>
		<path class="st0" d="M173.8,206.7c6.6,6.6,14.6,11.7,23.6,14.9c-0.1,0.1-0.1,0.2-0.1,0.3c-0.6,1.7-1.1,3.4-1.6,5
			c-0.2,0.9-0.6,1.8-0.8,2.7c-0.5,1.7-1,3.4-1.6,5.2c-0.8,2.6-1.6,5.2-2.3,7.6c-2.1,7.1-4.2,13.8-6.1,19.9
			c-12.6-4-24.3-10.1-34.7-18.3c-2.7-2.1-5.4-4.5-7.8-7.1C153.1,226.6,163.9,216.2,173.8,206.7L173.8,206.7z"/>
		<path class="st1" d="M358.5,211.1c-10,9-20.9,17.1-32.2,24.4c-10.7,6.9-22,13-33.7,18.1c-10.2-11.2-20.6-22.6-30.5-33.3
			c3.6-0.9,7.2-2,10.7-3.1c9.2-3,17.4-8.3,25.7-13.1c3.9-2.3,7.6-4.7,11.3-7.3c0.1-0.1,0.3-0.2,0.4-0.3c14.6,4.4,29.3,8.9,43.2,13.1
			C355.1,210.1,356.8,210.6,358.5,211.1L358.5,211.1z"/>
		<path class="st2" d="M308.1,158.6h-42.7c-0.2-1.2-0.4-2.2-0.8-3.3v-0.1h0.2c2-0.5,4.1-1.1,6.2-1.7c5-1.3,10-2.6,14.6-3.8
			c1-0.2,1.9-0.5,2.8-0.8c1.8-0.4,3.6-0.9,5.2-1.4c0.8-0.2,1.7-0.4,2.4-0.6c4.1-1.1,7.7-2,10.2-2.7
			C307.3,148.9,307.9,153.7,308.1,158.6L308.1,158.6z"/>
		<path class="st2" d="M410.9,137.8c0,2.8-1.2,5.5-2.4,8.1c-8.1,17-18.8,32.6-31.5,46.8c-1.2,1.4-2.4,2.7-3.8,4.1
			c-4.6,5-9.6,9.8-14.7,14.3c-1.7-0.5-3.4-1-5.1-1.5c-13.9-4.2-28.6-8.7-43.2-13.1c20.4-14.2,37.9-32.1,51.3-52.7
			c1.1-1.7,2.1-3.4,2.3-5.4c0.1-1.7-0.4-3.3-1.2-4.8c-0.3-0.7-0.8-1.4-1.2-2c-0.2-0.4-0.4-0.7-0.7-1.1c3.8-1,7.4-1.8,11.2-2.8
			c10.5-2.7,21-5.3,31.5-7.9c1.7,3,3.3,6,4.7,9.2c0.1,0.2,0.2,0.4,0.2,0.6C409.6,132.3,410.8,135,410.9,137.8L410.9,137.8z"/>
		<path class="st3" d="M121.7,77.5c-21.4,13.3-39.8,31.1-53.1,51.9c-3.9-1-7.7-2-11.4-3c-2.5-0.7-5.1-1.4-7.5-2
			c-3.4-0.9-6.7-1.7-9.9-2.6c-1.2-0.3-2.4-0.6-3.6-1c-3.3-0.9-6.5-1.7-9.5-2.5c16.6-27.6,39.5-51,66.2-68.9
			C101.9,58.4,111.7,67.9,121.7,77.5L121.7,77.5z"/>
		<path class="st3" d="M174.7,129c-7,6.5-12.2,14.8-14.9,24.2v0.1c-0.8-0.2-1.5-0.4-2.3-0.6c-2.5-0.6-5-1.4-7.6-2
			c-2.5-0.7-5.2-1.4-7.7-2c-2.6-0.7-5.3-1.4-8-2.1c-2.7-0.7-5.4-1.4-8.1-2.1c-1.4-0.4-2.7-0.7-4.1-1.1l-4.6-1.2v-0.1
			c0.8-2.9,1.8-5.7,2.9-8.5c5.2-13,13.2-24.8,23.6-34.6C154.7,109.4,165.1,119.6,174.7,129L174.7,129z"/>
		<path class="st4" d="M306.2,144.3c-2.5,0.7-6.1,1.6-10.2,2.7c-0.8,0.2-1.6,0.4-2.4,0.6c-1.7,0.4-3.4,0.9-5.2,1.4
			c-0.9,0.2-1.8,0.5-2.8,0.8c-4.6,1.2-9.5,2.5-14.6,3.8c-2,0.6-4.1,1.2-6.2,1.7h-0.1c0,0-0.1,0.1-0.1,0.1v-0.1
			c-2.4-9.6-7.4-18.3-14.3-25.1c9.2-9.7,18.4-19.3,26.4-26.9c1.4-1.4,2.9-2.8,4.2-4.2C293.5,111.1,302.3,126.7,306.2,144.3
			L306.2,144.3z"/>
		<path class="st4" d="M403.4,119.9c-10.5,2.7-21,5.3-31.5,7.9c-3.8,1-7.4,1.8-11.2,2.8c-13.9-22.3-33.5-41-56.4-54.7
			c10.2-10,20.4-20.2,30.6-30.3C363.4,64.6,387.2,90.2,403.4,119.9L403.4,119.9z"/>
		<path class="st5" d="M159.4,181.8c2.5,9.6,7.6,18.1,14.4,24.8c-9.9,9.5-20.7,19.9-31.5,30.3c-11.2-11.1-19.7-25.1-24.4-40.2
			c-0.1-0.1-0.1-0.1-0.1-0.1c-0.4-1.2-0.7-2.4-1.1-3.6c4.3-1.2,8.7-2.3,12.9-3.4c2.7-0.7,5.4-1.5,8.1-2.1
			C145.2,185.6,152.4,183.7,159.4,181.8z"/>
		<path class="st6" d="M334.9,45.6c-10.2,10.1-20.4,20.2-30.6,30.3c-19-11.4-40.3-19.3-62.2-23c1.6-6.7,3.2-13.3,4.8-19.9
			c0.5-2.1,1-4.2,1.5-6.4c0.6-2.5,1.2-5.1,1.8-7.6c0.5-2,1-4.1,1.5-6c14,2,27.8,5.6,41.3,10.9C307.8,29.5,321.9,36.9,334.9,45.6z"/>
		<path class="st7" d="M57.3,126.5c3.7,1,7.5,2,11.4,3c-0.9,1.4-1.8,2.8-2.6,4.2H18.4c2.5-5.2,5.4-10.2,8.3-15.2
			c3,0.8,6.2,1.6,9.5,2.5c1.2,0.3,2.4,0.6,3.6,1c3.3,0.9,6.5,1.7,9.9,2.6C52.2,125.2,54.7,125.8,57.3,126.5z"/>
		<path class="st7" d="M159.8,153.3c-1.4,4.8-2.1,9.8-2.1,15.1c0,4.7,0.6,9.2,1.7,13.4c-7,1.8-14.3,3.8-21.8,5.7
			c-2.7,0.6-5.4,1.4-8.1,2.1c-4.2,1.1-8.6,2.2-12.9,3.4c-4.6-17.1-4.1-34.7,0.8-50.8v-0.1c1.5,0.4,3.1,0.8,4.6,1.2
			c1.4,0.4,2.7,0.7,4.1,1.1c2.7,0.7,5.4,1.4,8.1,2.1c2.7,0.7,5.4,1.4,8,2.1s5.2,1.4,7.7,2c2.6,0.6,5.2,1.4,7.6,2
			c0.8,0.2,1.5,0.4,2.3,0.6L159.8,153.3L159.8,153.3z"/>
		<path class="st8" d="M292.5,253.6c-17,7.4-35.1,12.6-53.7,14.3c-0.4,0.1-1,0.1-1.4,0.1c-0.1-0.2-0.1-0.5-0.2-0.8
			c-0.6-2.5-1.1-5-1.7-7.4c-1.2-5.5-2.3-10.9-3.6-16.2c-0.5-2.2-1-4.4-1.5-6.6c-0.8-3.8-1.7-7.4-2.4-11c11.4-0.3,22.9-2.5,33.9-5.5
			C271.9,231.1,282.3,242.4,292.5,253.6L292.5,253.6z"/>
		<path class="st9" d="M181.2,53.9c-21.1,4.2-41.4,12.4-59.5,23.7c-10-9.7-19.8-19.1-28.8-27.9c23.5-15.7,49.8-27.2,77.4-33.4
			c0.8,2.8,1.7,5.6,2.5,8.6c0.6,2,1.2,3.9,1.7,5.8c0.4,1.3,0.7,2.6,1.2,3.9c1.1,3.9,2.2,7.9,3.4,11.8
			C179.7,48.8,180.5,51.3,181.2,53.9L181.2,53.9z"/>
		<path class="st9" d="M196.2,105.2c1,3.6,2,7.1,3,10.5c-9.3,2.2-17.8,7-24.5,13.3c-9.7-9.3-20.1-19.5-30.8-29.9
			c8.3-7.9,18.3-14.6,29.4-19.3c4.4-1.9,9.2-3.5,14.1-4.8c1.1,3.7,2.1,7.4,3.3,11.1c1.2,3.9,2.2,7.7,3.4,11.6l0.2,0.8
			C194.9,100.7,195.6,103,196.2,105.2z"/>
		<path class="st10" d="M237.5,268c-17.7,1.5-35.9-0.3-52.7-5.7c1.8-6,3.9-12.8,6.1-19.9c0.8-2.5,1.5-5,2.3-7.6
			c0.6-1.7,1.1-3.4,1.6-5.2c0.2-0.9,0.6-1.8,0.8-2.7c0.5-1.7,1-3.4,1.6-5c0-0.1,0-0.2,0.1-0.3h0.1c4.3,1.7,8.9,2.8,13.5,3.5
			c5.7,0.8,11.5,1.1,17.3,0.8c0.8,3.6,1.6,7.3,2.4,11c0.5,2.1,1,4.4,1.5,6.6c1.2,5.4,2.3,10.8,3.6,16.2c0.6,2.5,1.1,5,1.7,7.4
			c0.1,0.3,0.1,0.6,0.2,0.8L237.5,268z"/>
		<path class="st11" d="M237,74c-0.7,2.7-1.4,5.4-2,8c-0.6,2.6-1.3,5.2-1.8,7.8c-2.2,9.1-4.4,18-6.4,26.4c-4.7-1.4-9.6-2-14.8-2
			c-4.4,0-8.7,0.5-12.7,1.5h-0.1c-1-3.4-2-7-3-10.5c-0.7-2.2-1.4-4.5-2-6.8l-0.2-0.8c-1.2-3.8-2.2-7.6-3.4-11.6
			c-1.1-3.7-2.1-7.4-3.3-11.1C203.2,70.9,220.8,70.3,237,74L237,74z"/>
		<path class="st11" d="M251.7,13c-0.5,2-1,4-1.5,6c-0.6,2.5-1.2,5-1.8,7.6c-0.5,2.1-1,4.2-1.5,6.4c-1.6,6.6-3.2,13.2-4.8,19.9h-0.1
			c-9.8-1.7-19.9-2.5-29.8-2.3c-10.4,0.1-20.8,1.3-31,3.3c-0.7-2.5-1.5-5-2.1-7.5c-1.2-3.9-2.3-7.9-3.4-11.8
			c-0.4-1.3-0.8-2.6-1.2-3.9c-0.6-2-1.2-3.9-1.7-5.8c-0.8-2.9-1.7-5.8-2.5-8.6C196.9,10.1,224.6,8.7,251.7,13L251.7,13z"/>
	</g>
	<path class="st6" d="M281,98.9c-1.4,1.5-2.9,2.9-4.2,4.2c-7.9,7.6-17.2,17.2-26.4,26.9c-3.1-3.2-6.7-6-10.6-8.3
		c-4-2.4-8.4-4.2-13-5.6c2-8.4,4.2-17.3,6.4-26.4c0.6-2.6,1.2-5.2,1.8-7.8c0.6-2.7,1.3-5.4,2-8c13.3,2.9,25.8,8.7,35.7,17.8
		C275.7,93.9,278.4,96.3,281,98.9L281,98.9z"/>
</g>
</svg>
