<?xml version="1.0" encoding="UTF-8"?>
<svg id="Layer_1" data-name="Layer 1" xmlns="http://www.w3.org/2000/svg" viewBox="0 0 473.17 275.9">
  <defs>
    <style>
      .cls-1 {
        fill: #fff;
      }

      .cls-2 {
        fill: #b0fc38;
      }
    </style>
  </defs>
  <path class="cls-1" d="m455.77,172.26c-37.68,31.95-78.34,59.47-123.43,79.95-30.61,13.89-62.29,23.82-111.02,23.69-14.77,0-42.5-7.71-69.33-18.91-49.98-20.85-94.59-50.46-135.65-85.42-21.25-18.11-21.95-48.12-1.08-66.12C60.07,66.81,109.12,34.82,164.76,13.51c53.41-20.47,105.6-16.87,157.51,5.37,50.12,21.48,94.79,51.52,136.17,86.55,20.76,17.58,19.31,48.19-2.66,66.83Z"/>
  <path class="cls-2" d="m344.38,138.75c-.17,59.84-48.53,107.44-108.7,107.01-59.14-.41-106.85-48.42-106.89-107.58-.05-59.47,48.76-108.2,108.2-108.04,59.68.15,107.54,48.57,107.39,108.61Z"/>
</svg>